<?xml version="1.0" encoding="utf-8"?>
<svg version="1.1" xmlns="http://www.w3.org/2000/svg" width="237.047px" height="36.63px" viewBox="7.66 107.033 237.047 36.63">
<g>
	<path fill="#FFFFFF" d="M75.696,109.75H58.565v-2.716H96.17v2.716H78.969v33.496h-3.203V109.75H75.696z"/>
	<path fill="#FFFFFF" d="M147.006,143.245v-36.212h24.025c5.641,0,8.564,2.298,8.564,8.705c0,4.387-0.695,7.381-5.292,8.635v0.07
		c4.735,0.975,5.989,4.178,5.989,8.705c0,6.546-3.135,10.098-9.193,10.098H147.006z M170.334,123.12
		c4.596,0,6.059-3.134,6.059-7.242c0-5.989-3.342-6.128-5.85-6.128h-20.265v13.37H170.334z M150.209,140.529h19.012
		c5.292,0,7.869-1.811,7.869-7.104c0-3.203-0.976-7.59-6.477-7.59h-20.475L150.209,140.529L150.209,140.529z"/>
	<path fill="#FFFFFF" d="M195.683,107.033v36.212h-3.204v-36.212H195.683z"/>
	<path fill="#FFFFFF" d="M240.668,143.176h4.039l-17.967-35.307h-3.898l-17.967,35.307h3.76l4.805-9.401h22.563L240.668,143.176z
		 M214.833,130.92l9.889-19.36h0.069l9.68,19.36H214.833z"/>
	<path fill="#FFFFFF" d="M133.147,107.033v22.493c0,4.735,0,11.421-7.382,11.421h-11.908c-7.382,0-7.382-6.686-7.382-11.421v-22.493
		h-3.203v24.791c0,9.332,4.944,11.77,10.585,11.77h11.908c5.641,0,10.586-2.438,10.586-11.77v-24.791H133.147z"/>
</g>
<g>
	<path fill="#FFFFFF" d="M28.76,125.07l-7.938-5.432c-0.139-0.069-0.209-0.069-0.348,0c-0.139,0.07-0.139,0.14-0.139,0.279v10.863
		c0,0.141,0.069,0.209,0.139,0.279c0.069,0,0.139,0.069,0.139,0.069c0.07,0,0.139,0,0.139-0.069l7.939-5.432
		c0.139-0.07,0.139-0.14,0.139-0.279S28.83,125.139,28.76,125.07z"/>
	<path fill="#FFFFFF" d="M23.538,143.663L7.66,134.541v-18.315l15.808-9.192l15.877,9.123v18.315L23.538,143.663z M9.958,133.217
		l13.58,7.8l13.51-7.869v-15.668l-13.58-7.729l-13.51,7.799V133.217z"/>
</g>
</svg>
