<?xml version="1.0" encoding="utf-8"?>
<!-- Generator: Adobe Illustrator 23.1.1, SVG Export Plug-In . SVG Version: 6.00 Build 0)  -->
<svg version="1.1" id="plyr-video-info" xmlns="http://www.w3.org/2000/svg" xmlns:xlink="http://www.w3.org/1999/xlink" x="0px" y="0px"
	 viewBox="0 0 76 77" style="enable-background:new 0 0 76 77;" xml:space="preserve">
<g id="Ellipse_733_1_">
	<g>
		<circle style="fill:none;" cx="38.1" cy="38" r="34.5"/>
	</g>
	<g>
		<path style="fill:#FFFFFF;" d="M38.1,72.5C19.1,72.5,3.6,57,3.6,38S19.1,3.5,38.1,3.5S72.6,19,72.6,38S57.2,72.5,38.1,72.5z
			 M38.1,7.5C21.3,7.5,7.6,21.2,7.6,38s13.7,30.5,30.5,30.5C55,68.5,68.6,54.8,68.6,38S55,7.5,38.1,7.5z"/>
	</g>
</g>
<g id="Group_1036_1_" transform="translate(-98 -90)">
	<g id="Path_1910_1_">
		<path style="fill:#FFFFFF;" d="M136.1,106.2c-2.3,0-4.2,1.9-4.2,4.2s1.9,4.2,4.2,4.2c2.3,0,4.2-1.9,4.2-4.2l0,0
			C140.4,108.1,138.5,106.2,136.1,106.2z"/>
	</g>
	<g id="Path_1911_1_">
		<path style="fill:#FFFFFF;" d="M136.1,121c-1.8,0-3.2,1.4-3.2,3.2v19.1c0,1.8,1.4,3.2,3.2,3.2c1.8,0,3.2-1.4,3.2-3.2v-19.1
			C139.3,122.4,137.9,121,136.1,121C136.1,121,136.1,121,136.1,121z"/>
	</g>
</g>
</svg>
