<?xml version="1.0" encoding="utf-8"?>
<!-- Generator: Adobe Illustrator 24.0.0, SVG Export Plug-In . SVG Version: 6.00 Build 0)  -->
<svg version="1.1" id="Layer_1" xmlns="http://www.w3.org/2000/svg" xmlns:xlink="http://www.w3.org/1999/xlink" x="0px" y="0px"
	 viewBox="0 0 18 18" style="enable-background:new 0 0 18 18;" xml:space="preserve">
<style type="text/css">
	.st0{fill:#FFFFFF;}
</style>
<path id="Rectangle_276" class="st0" d="M12.7,1.1L12.7,1.1c1.3,0,2.3,1,2.3,2.3v11.2c0,1.3-1,2.3-2.3,2.3l0,0c-1.3,0-2.3-1-2.3-2.3
	V3.4C10.4,2.1,11.4,1.1,12.7,1.1z"/>
<path id="Rectangle_277" class="st0" d="M5.3,1.1L5.3,1.1c1.3,0,2.3,1,2.3,2.3v11.2c0,1.3-1,2.3-2.3,2.3l0,0c-1.3,0-2.3-1-2.3-2.3
	V3.4C3,2.1,4,1.1,5.3,1.1z"/>
</svg>
