
<?xml version="1.0" encoding="utf-8"?>
<!-- Generator: Adobe Illustrator 23.0.3, SVG Export Plug-In . SVG Version: 6.00 Build 0)  -->
<svg version="1.1" id="plyr-character-carousel" xmlns="http://www.w3.org/2000/svg" xmlns:xlink="http://www.w3.org/1999/xlink" x="0px" y="0px"
	 viewBox="0 0 353.23 381.22" style="enable-background:new 0 0 353.23 381.22;" xml:space="preserve">
<g>
	<path style="fill:#0B4949;" d="M313.39,159.25c6.45,1.1,12.02,3.52,16.96,7.36c12.16,9.44,19.61,21.78,22.74,36.82
		c0.34,1.62,0.04,2.82-0.89,4.14c-3.43,4.83-7.36,9.11-12.5,12.16c-3.46,2.05-7.14,3.41-11.21,3.6c-0.58,0.03-1.04-0.14-1.49-0.49
		c-2.1-1.63-3.82-3.6-5.33-5.76c-0.42-0.59-0.72-0.62-1.29-0.28c-0.87,0.53-1.81,0.95-2.67,1.5c-0.68,0.44-1.29,0.39-1.98,0.08
		c-1.5-0.68-2.64-1.79-3.71-2.99c-1.07-1.2-1.99-2.51-2.85-3.85c-0.29-0.44-0.34-0.87-0.25-1.36c0.39-2.25,1.63-4.01,3.22-5.54
		c0.44-0.42,0.51-0.72,0.24-1.29c-1.53-3.21-3.22-6.33-5.48-9.1c-1.42-1.74-3.15-2.88-5.39-3.42c-8.39-2.06-16.85-2.19-25.37-1.06
		c-6.61,0.88-13.06,2.46-19.34,4.71c-0.72,0.26-1.05,0.64-1.18,1.38c-1.55,8.89-2.91,17.81-3.82,26.79
		c-0.69,6.77-0.54,13.56-0.66,20.35c-0.18,10.54-0.46,21.07-0.69,31.6c-0.01,0.53-0.15,1-0.35,1.48c-2.2,5.2-5.72,9.44-9.68,13.36
		c-4.57,4.52-9.72,8.3-15.01,11.94c-4.33,2.99-7.91,6.79-10.75,11.24c-0.59,0.92-1.01,1.92-1.21,3c-0.16,0.86-0.01,1.63,0.36,2.41
		c0.44,0.92,0.75,1.9,1.19,2.82c1.8,3.75,4.46,6.86,7.46,9.68c3.49,3.27,7.18,6.27,11.52,8.38c1.43,0.69,1.83,1.69,1.53,3.25
		c-0.28,1.46-0.88,2.81-1.51,4.13c-7.53,15.71-19.92,25.13-36.95,28.5c-9.01,1.78-17.9,1.02-26.68-1.52
		c-10.9-3.14-21.24-7.55-30.83-13.64c-0.24-0.15-0.49-0.31-0.72-0.48c-3.82-2.82-3.47-2.47-3.89-7.19c-0.2-2.24,0.12-4.47,0.66-6.66
		c0.18-0.73,0.55-1.16,1.22-1.45c2.77-1.2,5.72-1.57,8.68-1.92c4.33-0.51,8.62-1.2,12.67-2.91c1.45-0.61,2.83-1.37,3.87-2.6
		c0.75-0.88,0.72-0.96-0.29-1.49c-4.35-2.27-8.56-4.75-12.26-8.01c-1.57-1.38-2.98-2.9-4.07-4.7c-0.71-1.17-0.93-2.32-0.61-3.73
		c1.41-6.07,4.13-11.53,7.48-16.72c1.61-2.51,3.37-4.91,5.3-7.18c0.48-0.56,0.41-0.82-0.08-1.29c-3.38-3.25-7.12-6.05-10.87-8.85
		c-7.39-5.51-14.85-10.94-21.71-17.12c-4.2-3.78-8.16-7.78-11.72-12.16c-0.26-0.32-0.5-0.67-0.92-0.82
		c-6.12-2.23-12.26-2.84-18.43-0.23c-3.16,1.34-3.12,1.45-3.37,4.89c-0.55,7.56-1.1,15.13-2.64,22.58c-0.21,1-0.76,1.59-1.53,2.07
		c-1.92,1.22-4.07,1.84-6.26,2.31c-5.89,1.26-11.87,1.57-17.87,1.3c-14.42-0.65-28.51-3.31-42.32-7.43
		c-0.66-0.2-1.22-0.51-1.75-0.95c-7.02-5.84-10.74-13.44-11.99-22.37c-1.11-7.92-0.49-15.78,0.7-23.63
		c0.62-4.08,1.4-8.13,2.33-12.15c0.09-0.39,0.17-0.7,0.58-0.9c4.38-2.06,8.91-3.15,13.77-2.32c1.25,0.21,2.23,0.94,3.2,1.66
		c2.83,2.11,5.73,4.08,8.92,5.61c5.95,2.84,12.26,4.57,18.67,5.97c0.66,0.15,0.58-0.28,0.63-0.64c0.91-5.62,2.03-11.2,3.48-16.71
		c1.14-4.36,2.44-8.67,4.37-12.77c0.51-1.07,1.12-2.08,1.72-3.1c0.81-1.38,2-2.19,3.49-2.66c3.46-1.09,7.03-1.4,10.62-1.48
		c10.67-0.23,21.14,1.02,31.23,4.71c0.61,0.22,0.76-0.04,0.98-0.47c2.46-4.84,5.61-9.19,9.56-12.89c2.84-2.67,5.92-5.09,8.87-7.65
		c2.97-2.58,5.92-5.2,8.66-8.04c0.39-0.4,1.09-0.84,0.92-1.33c-0.14-0.4-0.97-0.22-1.5-0.24c-5.32-0.11-10.63-0.11-15.94-0.46
		c-2.3-0.15-4.59-0.38-6.87-0.77c-1.95-0.33-3.51-1.27-4.83-2.73c-1.75-1.93-3.24-4.05-4.58-6.27c-4.25-7.01-7.41-14.47-9.71-22.35
		c-3.37-11.53-7.56-22.8-11.52-34.13c-0.96-2.74-2.13-5.45-2.56-8.32c-0.87-5.84,0.52-11.05,4.85-15.29
		c6.91-6.76,15.08-10.14,24.84-9.37c3.9,0.31,7.64,1.17,11.14,2.96c1.92,0.99,3.67,2.22,5.05,3.91c0.85,1.04,1.17,2.06,0.67,3.51
		c-1.42,4.14-1.85,8.48-2.28,12.82c-0.05,0.53,0.26,0.58,0.6,0.66c1.21,0.31,2.39,0.7,3.45,1.39c0.67,0.44,1.1,1.01,1.3,1.82
		c0.86,3.54,0.86,7.1,0.42,10.69c-0.09,0.71-0.47,1.32-0.81,1.94c-1.17,2.13-2.7,3.96-4.47,5.61c-0.37,0.35-0.51,0.65-0.35,1.15
		c1.74,5.32,3.57,10.6,6.11,15.6c0.78,1.54,1.66,3.03,2.82,4.33c0.87,0.96,1.84,1.3,3.17,1.02c4.56-0.98,8.55-3.15,12.37-5.7
		c0.8-0.53,1.54-1.16,2.34-1.67c0.56-0.35,0.47-0.63,0.14-1.1c-3.65-5.27-6.48-10.94-8.17-17.14c-3.24-11.87-1.84-23.32,3.14-34.44
		c2.75-6.12,6.54-11.55,10.84-16.68c8.39-10.02,13.83-21.58,17.32-34.11c0.54-1.94,1.08-3.88,1.52-5.84
		c0.32-1.43,1.07-2.49,2.23-3.34c2.74-2.01,5.84-3.29,9-4.42c7.5-2.68,15.25-4.29,23.12-5.4c10.12-1.42,20.28-1.84,30.47-1.28
		c17.95,0.98,35.02,5.32,51.15,13.32c9.98,4.95,19.28,10.85,27.33,18.63c10.42,10.07,17.17,22.23,20.88,36.18
		c1.69,6.34,2.84,12.72,2.43,19.34c-0.49,7.9-2.02,15.59-4.36,23.13c-3.88,12.52-9.38,24.24-17.26,34.79
		c-2.34,3.14-4.91,6.08-7.77,8.76C314.25,158.49,313.91,158.78,313.39,159.25z M309.81,192.95c-0.01-0.02-0.01-0.05-0.03-0.07
		c-0.01-0.01-0.03-0.01-0.05-0.02C309.76,192.89,309.78,192.92,309.81,192.95c0.07,0.06,0.13,0.13,0.19,0.19
		c0.04,0.12,0.05,0.26,0.12,0.36c2.04,2.75,3.71,5.71,5.07,8.85c0.14,0.32,0.29,0.64,0.48,0.93c0.21,0.32,0.57,0.31,0.86,0.18
		c0.3-0.14,0.05-0.39-0.02-0.57c-1.02-2.54-1.95-5.14-3.89-7.16c-0.85-0.88-1.55-1.92-2.61-2.58
		C309.94,193.08,309.87,193.01,309.81,192.95z M122.42,74.55c0.06,0.07,0.13,0.13,0.19,0.2c1.31,2.16,1,4.43,0.48,6.73
		c-0.73,3.29-1.12,6.63-1.24,10c0.14,0.9-0.18,1.47-1.08,1.8c-0.45,0.17-1.03,0.34-1.18,0.96l-0.02-0.01
		c-0.12-0.04-0.2,0.01-0.25,0.12l0.01,0c-0.17-0.02-0.31,0.04-0.39,0.2c-0.41,0.3-0.83,0.59-1.22,0.91
		c-4.77,3.83-4.04,11.47-0.03,15.17c1.14,1.05,2.44,1.6,3.95,1.74c0.36,0.03,0.68,0.01,0.98-0.25c2.07-1.7,3.87-3.62,5.22-5.95
		c0.38-0.65,0.62-1.33,0.67-2.07c0.15-2.56,0.2-5.1-0.28-7.64c-0.15-0.77-0.5-1.16-1.2-1.42c-1.29-0.49-2.65-0.72-3.97-1.06
		c-0.26-0.07-0.61,0.02-0.67-0.4c0.06-0.71,0.12-1.42,0.19-2.13c0.07-2.23,0.41-4.43,0.73-6.64c0.36-2.53,0.9-5.01,1.61-7.47
		c0.07-0.23,0.28-0.49,0.03-0.72c-0.74-0.68-1.24-1.66-2.34-1.89C122.54,74.68,122.48,74.62,122.42,74.55
		c-0.03-0.01-0.05-0.03-0.08-0.04C122.37,74.52,122.39,74.54,122.42,74.55z M152.78,131.45c-0.46,0.28-0.93,0.56-1.38,0.85
		c-4.15,2.71-8.49,4.95-13.43,5.9c-2.07,0.4-3.71-0.25-5.15-1.64c-1.28-1.23-2.22-2.72-3.08-4.27c-1.65-2.96-2.9-6.1-4.14-9.26
		c-0.36,0.19-0.41,0.53-0.57,0.79c-3.74,6.38-9.3,9.63-16.7,9.49c-3.76-0.07-7.16-1.52-10.38-3.38c-0.28-0.16-0.52-0.44-0.9-0.41
		c-0.01,0.13-0.04,0.2-0.02,0.26c0.13,0.46,0.28,0.92,0.4,1.38c2.06,7.48,4.69,14.74,8.51,21.52c1.79,3.18,3.66,6.31,6.19,8.99
		c0.75,0.79,1.6,1.31,2.7,1.53c2.84,0.56,5.71,0.78,8.58,0.89c4.96,0.18,9.92,0.27,14.88,0.39c0.68,0.02,1.36,0.04,1.95,0.39
		c0.48,0.28,0.67,0.04,0.91-0.3c2.87-4.18,5.34-8.56,6.86-13.45c1.63-5.26,2.75-10.64,4-15.99
		C152.3,133.92,152.81,132.74,152.78,131.45c0.06,0.06,0.1,0.06,0.13-0.03c0.01-0.02-0.01-0.06-0.02-0.09
		C152.86,131.37,152.82,131.41,152.78,131.45z M182.93,162.56c0.06-0.21,0.09-0.44,0.17-0.64c0.66-1.72,1.59-3.29,2.79-4.68
		c0.62-0.72,0.48-1.08-0.34-1.43c-0.73-0.32-1.44-0.71-2.12-1.12c-3.63-2.23-7.09-4.69-10.47-7.28
		c-5.73-4.39-11.02-9.24-15.74-14.72c-0.34-0.4-0.57-0.92-1.12-1.16c-0.08,0.18-0.16,0.32-0.2,0.47c-0.79,3.32-1.57,6.65-2.36,9.97
		c-1.59,6.66-3.17,13.31-6.71,19.3c-1.94,3.28-3.96,6.54-6.41,9.42c-3.21,3.77-7.14,6.87-10.87,10.13c-2.31,2.02-4.76,3.89-7,5.98
		c-3.32,3.09-5.97,6.74-8.26,10.66c-0.61,1.04-0.9,2.06-0.59,3.28c0.25,1.01,0.31,2.08,0.42,3.13c0.42,4,0.87,7.99,1.22,12
		c0.44,4.97,0.75,9.94,0.87,14.92c0.12,5.09,0.09,10.18-0.13,15.26c-0.09,2.11-0.15,4.21-0.38,6.31c-0.07,0.61-0.02,1.17,0.42,1.7
		c4.4,5.19,9.29,9.87,14.49,14.25c0.78,0.66,1.5,1.43,2.55,1.94c-0.03-2.27,0.01-4.4,0.38-6.52c0.4-2.24,0.98-4.42,2.15-6.4
		c0.44,0.88,1.22,1.06,2.11,1.02c-0.02,0.13-0.02,0.26-0.08,0.37c-1.9,3.78-2.19,7.84-2.03,11.96c0.04,0.92,0.01,1.86,0.96,2.55
		c3.76,2.76,7.47,5.6,11.21,8.39c3.74,2.8,7.5,5.57,10.89,8.79c0.73,0.69,1.43,0.87,2.32,0.75c2.57-0.34,5.15-0.5,7.74-0.53
		c4.99-0.06,9.98-0.15,14.98,0.14c3.41,0.2,6.82,0.45,10.21,0.85c3.96,0.46,7.9,1.05,11.81,1.84c5.77,1.17,11.46,2.61,16.81,5.16
		c0.63,0.3,1.09,0.25,1.67-0.13c6.02-3.95,11.58-8.44,16.47-13.73c2-2.17,3.81-4.5,5.21-7.1c0.71-1.3,1.55-2.55,1.55-4.17
		c0-4.83,0.17-9.66,0.34-14.48c0.12-3.42,0.1-6.85,0.18-10.27c0.18-8.12-0.09-16.25,0.6-24.36c0.36-4.29,0.84-8.57,1.42-12.84
		c0.74-5.4,1.61-10.78,2.59-16.15c0.21-1.13,0.55-2.25,0.21-3.48c-1.41-5.17-1.5-10.4-0.4-15.65c0.24-1.16,0.24-1.14-0.98-1.18
		c-0.67-0.02-1.33-0.13-2-0.16c-4.05-0.21-8.07-0.72-12.07-1.34c-7.59-1.17-15.03-2.95-22.35-5.25c-8.77-2.76-17.26-6.22-25.46-10.4
		c-0.68-0.35-1-0.19-1.42,0.34c-1.32,1.63-2.32,3.43-3.16,5.34C184.53,162.85,183.86,162.44,182.93,162.56z M333.64,59.37
		c0.01,0.03,0.01,0.05,0.02,0.07c0.01,0.01,0.04,0.01,0.06,0.02C333.69,59.43,333.67,59.4,333.64,59.37
		c-0.05-0.18-0.09-0.37-0.17-0.54c-3-6.32-6.85-12.06-11.57-17.22c-4.53-4.96-9.61-9.29-15.17-13.05
		c-9.41-6.36-19.57-11.23-30.28-14.97c-7.89-2.75-16.01-4.56-24.31-5.58c-4.73-0.58-9.46-1.02-14.22-1.1
		c-4.48-0.07-8.96-0.14-13.44,0.18c-2.61,0.19-5.23,0.33-7.83,0.63c-5.04,0.58-10.05,1.33-15.01,2.44
		c-5.81,1.3-11.53,2.87-16.94,5.42c-0.83,0.39-1.62,0.88-2.44,1.32c1.46-0.12,2.86-0.27,4.25-0.35c5.06-0.26,10.09,0.09,15.08,1.01
		c5.82,1.08,11.51,2.65,17.05,4.73c6.39,2.39,12.63,5.1,18.51,8.59c7.7,4.56,14.58,10.14,20.65,16.73
		c3.24,3.51,6.21,7.23,8.91,11.16c2.54,3.7,4.82,7.55,6.75,11.6c0.34,0.72,0.59,0.84,1.2,0.24c0.79-0.79,1.68-1.48,2.54-2.19
		c5.61-4.62,11.65-8.55,18.38-11.35c7.36-3.06,14.96-4.71,22.99-3.68c4.18,0.54,8.08,1.8,11.74,3.89
		C331.48,57.93,332.42,58.87,333.64,59.37z M201.21,159.9c-0.06-0.12-0.12-0.24-0.26-0.07c0.09,0.02,0.18,0.04,0.27,0.06
		c0.13,0.09,0.24,0.22,0.38,0.27c2.92,1.13,5.82,2.33,8.77,3.38c9.26,3.29,18.74,5.72,28.47,7.18c4.8,0.72,9.63,1.26,14.47,1.43
		c7.51,0.26,15.02,0.04,22.48-1.07c7.04-1.05,13.9-2.72,20.56-5.23c8.39-3.17,15.46-8.13,21.15-15.09
		c4.98-6.1,9.08-12.75,12.51-19.84c3.35-6.93,6.03-14.11,7.97-21.55c2.2-8.45,3.6-17,2.78-25.77c-0.38-4.01-1.09-7.99-2.72-11.7
		c-3.18-7.21-8.45-12.09-16.2-14.06c-4.78-1.21-9.6-1.14-14.45-0.41c-6.28,0.95-12.08,3.19-17.6,6.27
		c-4.12,2.3-7.91,5.05-11.45,8.18c-2.75,2.43-5.06,5.11-6.51,8.54c-4.89,11.58-9.21,23.37-13.69,35.11
		c-1.72,4.51-3.28,9.08-5.33,13.46c-2.64,5.65-5.93,10.89-9.99,15.64c-3.88,4.55-8.34,8.38-13.6,11.25
		c-4.45,2.43-9.22,3.95-14.25,4.54c-2.67,0.31-5.35,0.33-8.04,0.12C205,160.39,203.13,159.97,201.21,159.9z M189.86,20.05
		c-3.25,0.04-5.8,0.17-8.3,0.87c-1.66,0.47-2.7,1.51-3.19,3.14c-1.17,3.95-2.48,7.86-3.91,11.72c-1.52,4.1-2.92,8.26-4.94,12.16
		c-2.35,4.52-5.54,8.46-8.96,12.2c-5.99,6.55-10.28,14.03-12.93,22.52c-2.53,8.1-3.33,16.26-1.61,24.62
		c1.72,8.33,5.61,15.59,10.95,22.12c5.25,6.42,11.5,11.76,18.21,16.57c9.36,6.71,19.56,11.46,31.21,12.47
		c9.44,0.81,18.23-1.11,25.92-6.86c9.34-6.99,15.93-16.13,20.19-26.91c4.48-11.35,8.71-22.8,13.1-34.18
		c1.9-4.92,3.74-9.86,6.28-14.5c0.21-0.38,0.06-0.66-0.08-0.98c-5.33-11.66-12.73-21.8-22.39-30.25
		c-12.09-10.58-26.04-17.63-41.53-21.69C201.75,21.45,195.55,20.2,189.86,20.05z M63.02,208.93c-0.2,0.19-0.3,0.24-0.32,0.31
		c-0.48,1.69-0.96,3.37-1.41,5.07c-1.14,4.31-2.08,8.67-2.83,13.07c-0.55,3.22-1.34,6.41-0.85,9.75c0.4,2.72,0.79,5.42,1.64,8.03
		c0.67,2.07,1.53,4.07,2.77,5.87c0.61,0.89-0.31,1.1-0.67,1.51c-0.43,0.49-0.65-0.05-0.86-0.33c-1.11-1.46-1.89-3.12-2.53-4.82
		c-1.47-3.91-2.25-7.96-2.45-12.13c-0.03-0.53,0.04-1.2-0.75-1.36c-3.44-0.68-6.85-1.49-10.21-2.51c-4.81-1.46-9.49-3.23-13.83-5.82
		c-2.31-1.38-4.43-3.03-6.62-4.56c-0.69-0.48-1.12-0.42-1.51,0.35c-0.62,1.23-1.17,2.49-1.58,3.8c-1.57,5.03-1.97,10.24-2.17,15.47
		c-0.12,3.06,0.12,6.12,0.34,9.18c0.22,3.12,0.59,6.21,1.19,9.27c0.41,2.09,1.03,4.05,2.62,5.64c2.9,2.91,6.57,4.38,10.33,5.66
		c3.8,1.3,7.72,2.19,11.65,3.02c5.59,1.19,11.22,2.02,16.95,2.03c1.01,0,1.71-0.3,2.43-1.01c2.88-2.85,6.36-4.44,10.43-4.57
		c0.73-0.02,0.85-0.43,0.92-0.94c0.21-1.54,0.44-3.09,0.57-4.64c0.34-4.19,0.76-8.37,1.03-12.57c0.08-1.3,0.11-2.6,0.28-3.9
		c0.19-1.42,0.2-2.8-0.94-4.09c-4.04-4.55-7.13-9.72-9.45-15.35c-1.89-4.59-3.18-9.34-3.8-14.28
		C63.18,212.41,62.98,210.75,63.02,208.93z M113.23,236.81c0-1.06,0-2.11,0-3.17c-0.05-10.51-1.04-20.96-2.33-31.38
		c-0.07-0.53-0.36-0.69-0.76-0.85c-2.04-0.83-4.13-1.53-6.26-2.12c-6.1-1.69-12.33-2.57-18.64-2.84c-4.99-0.21-9.98-0.2-14.91,0.88
		c-1.52,0.33-2.88,0.79-3.62,2.33c-0.66,1.37-1.71,2.58-1.78,4.19c-0.21,4.53,0.08,9.02,0.99,13.46
		c3.05,14.84,10.96,26.48,23.2,35.27c0.45,0.32,0.75,0.27,1.18,0c1.53-0.94,3.17-1.67,4.89-2.18c5.67-1.67,11.26-1.18,16.8,0.63
		c0.69,0.23,0.85,0.12,0.9-0.6C113.17,245.9,113.21,241.35,113.23,236.81z M174.34,293.79c-2.76-0.02-7.79,0.4-12.77,1.36
		c-0.48,0.09-0.79,0.3-1.1,0.66c-2.52,2.96-4.79,6.09-6.8,9.41c-2.66,4.4-4.86,9-5.92,14.08c-0.06,0.28-0.19,0.54-0.02,0.83
		c0.67,1.2,1.34,2.36,2.71,2.99c3.26,1.5,6.62,2.71,10.1,3.61c6.91,1.79,13.96,2.55,21.09,2.68c1.76,0.03,3.55,0.17,5.27-0.08
		c3.13-0.45,6.2-1.27,9.21-2.25c5.14-1.68,9.99-3.94,14.29-7.27c0.42-0.32,0.64-0.56,0.34-1.15c-0.48-0.96-0.54-2.01-0.37-3.09
		c0.33-2.11,1.31-3.93,2.47-5.67c1.72-2.57,3.83-4.81,6.05-6.93c0.52-0.5,0.59-0.73-0.18-0.98c-2.43-0.8-4.82-1.71-7.26-2.46
		C200.12,296,188.56,293.81,174.34,293.79z M186.23,363.84c1.89-0.14,3.8-0.24,5.66-0.72c4.11-1.07,8.14-2.39,12.01-4.17
		c5.65-2.59,11.08-5.56,16.3-8.93c0.58-0.38,0.97-0.8,1.05-1.58c0.12-1.1,0.28-2.21,0.69-3.26c0.27-0.68,0.77-1.43,0.66-2.06
		c-0.13-0.74-1.18-0.85-1.81-1.27c-2.78-1.86-5.18-4.13-7.4-6.63c-2.6-2.92-4.9-6.05-6.95-9.37c-0.35-0.57-0.67-0.76-1.31-0.41
		c-3.68,1.98-7.58,3.39-11.6,4.46c-2.22,0.59-4.44,1.34-6.72,1.42c-5.39,0.17-10.78,0.01-16.15-0.69c-4.94-0.64-9.8-1.59-14.55-3.11
		c-0.24-0.08-0.57-0.38-0.74-0.01c-0.13,0.29,0.27,0.37,0.47,0.51c3.06,2.05,6.27,3.83,9.65,5.3c5.26,2.28,10.67,4.07,16.3,5.16
		c1.28,0.25,2.58,0.41,3.86,0.62c0.54,0.09,0.95,0.36,0.68,0.96c-0.18,0.4,0.15,1.25-0.81,1.08c-2.23-0.38-4.46-0.72-6.66-1.24
		c-4.26-1.02-8.41-2.38-12.46-4.05c-0.45-0.18-0.79-0.31-0.92,0.31c-0.38,1.76-1.62,2.91-2.98,3.85c-4.28,2.95-9.25,3.84-14.25,4.61
		c-2.36,0.36-4.75,0.49-7.08,1.03c-0.27,0.06-0.74-0.03-0.8,0.36c-0.05,0.28,0.3,0.46,0.53,0.64c2.41,1.86,5.01,3.43,7.7,4.83
		c3.67,1.91,7.57,3.25,11.43,4.68c6.38,2.36,12.83,4.52,19.31,6.6C181.6,363.44,183.89,363.68,186.23,363.84z M108.42,70.72
		c-2.2-0.13-4.34,0.16-6.45,0.7c-5.56,1.42-10.29,4.25-14.21,8.46c-2.28,2.45-3.43,5.29-3.62,8.62c-0.15,2.59,0.43,5,1.27,7.4
		c3.27,9.41,6.58,18.81,9.75,28.25c0.53,1.58,1.33,2.63,2.71,3.45c4.13,2.44,8.38,4.39,13.37,3.66c3.73-0.54,6.9-2.2,9.56-4.84
		c0.34-0.34,0.48-0.69,0.28-1.2c-1.25-3.24-1.65-6.66-2.16-10.06c-0.09-0.61,0.11-1.39-0.75-1.81c-1.63-0.79-2.78-2.13-3.73-3.63
		c-1.64-2.6-2.26-5.41-1.87-8.49c0.27-2.13,1-3.98,2.33-5.66c1.22-1.54,2.74-2.66,4.34-3.72c0.35-0.23,0.67-0.41,0.68-0.94
		c0.09-3.77,0.68-7.48,1.5-11.14c0.4-1.79,0.08-3.36-1.13-4.71c-0.74-0.83-1.53-1.64-2.47-2.26c-0.71-0.48-1.36-1.11-2.23-1.28
		C113.23,71.04,110.85,70.57,108.42,70.72z M324.93,170.47c-0.29,0-0.58-0.02-0.86,0.01c-0.28,0.03-0.56,0.14-0.84,0.16
		c-3.2,0.24-5.87,1.64-8.2,3.75c-3.77,3.42-6.14,7.72-7.82,12.45c-0.13,0.38-0.18,0.74,0.18,1.05c2.39,1.99,4.61,4.14,6.64,6.5
		c1.28,1.48,2.42,3.04,3.12,4.91c0.34,0.93,0.8,1.82,1.13,2.75c0.47,1.32,1.56,2.16,2.38,3.21c1.12,1.44,1.54,3.23,2.46,4.75
		c2.18,3.62,5.16,6.57,8.16,9.5c0.24,0.23,0.45,0.38,0.84,0.27c2.75-0.82,5.3-2.03,7.68-3.64c3.39-2.31,6.1-5.31,8.67-8.47
		c1.38-1.69,1.93-3.31,1.27-5.58c-1.17-4.03-2.37-8.02-4.11-11.84c-1.95-4.29-4.38-8.29-7.43-11.92c-1.32-1.57-2.8-2.98-4.21-4.45
		c-0.93-0.97-1.81-2.13-3.29-2.52C328.79,170.85,326.87,170.62,324.93,170.47z M327.98,168.57c-0.86-0.58-1.71-1.19-2.59-1.74
		c-4.21-2.65-8.85-4.08-13.73-4.86c-0.94-0.15-1.64-0.04-2.38,0.54c-0.78,0.61-1.65,1.11-2.5,1.6c-10.51,6.1-22.02,8.96-33.96,10.38
		c-5.76,0.68-11.55,0.89-17.35,0.73c-0.61-0.02-0.83,0.19-0.95,0.75c-1.08,5.12-1.08,10.22,0.2,15.31c0.14,0.55,0.29,0.7,0.89,0.48
		c7.78-2.88,15.8-4.66,24.07-5.4c8.11-0.72,16.11-0.27,23.96,1.99c0.79,0.23,1.08,0.12,1.32-0.71c1.46-4.98,3.76-9.5,7.34-13.31
		c2.95-3.13,6.41-5.27,10.77-5.72C324.67,168.46,326.29,168.54,327.98,168.57z M61.88,277.3c-3.89,0.15-7.54-0.21-11.16-0.81
		c-4.93-0.82-9.83-1.83-14.64-3.21c-4.34-1.24-8.6-2.67-12.35-5.31c-2.5-1.76-4.22-4.01-4.96-7.03c-1.21-4.92-1.62-9.93-1.83-14.95
		c-0.16-3.83-0.07-7.66,0.32-11.49c0.39-3.82,1.03-7.58,2.33-11.2c0.36-1.01,0.83-1.98,1.28-3.04c-2.8-0.14-5.33,0.55-7.85,1.42
		c-0.76,0.26-1.15,0.65-1.31,1.43c-0.71,3.59-1.44,7.17-1.97,10.8c-0.55,3.79-1.03,7.58-1.08,11.4c-0.03,2.55-0.09,5.11,0.14,7.67
		c0.27,2.96,0.71,5.88,1.54,8.73c1.26,4.36,3.36,8.29,6.41,11.65c1.53,1.68,3,3.52,5.45,4.03c1.09,0.23,2.15,0.61,3.23,0.89
		c6.06,1.63,12.2,2.95,18.39,3.98c3.01,0.5,6.04,0.93,9.08,1.22c1.52,0.15,3.05,0.25,4.56,0.43c2.02,0.24,2.06,0.33,2.45-1.57
		C60.26,280.61,61.01,279.04,61.88,277.3z M187.02,372.65c4.12,0.15,8.32-0.42,12.44-1.45c8.99-2.23,16.78-6.59,23.19-13.34
		c0.44-0.46,0.58-0.85,0.25-1.43c-0.75-1.32-1.23-2.74-1.5-4.23c-0.09-0.52-0.23-0.47-0.6-0.24c-1.74,1.07-3.48,2.15-5.25,3.17
		c-5.67,3.24-11.45,6.25-17.69,8.28c-3.15,1.03-6.32,2.06-9.65,2.29c-3.54,0.24-6.99-0.21-10.37-1.37
		c-5.92-2.03-11.9-3.91-17.77-6.08c-3.56-1.32-7.15-2.58-10.6-4.19c-3.81-1.77-7.38-3.94-10.64-6.61c-0.14-0.12-0.27-0.34-0.47-0.28
		c-0.28,0.09-0.16,0.37-0.2,0.58c-0.31,1.55-0.22,3.12-0.18,4.69c0.04,1.38,0.24,2.63,1.59,3.56c4.04,2.79,8.32,5.12,12.75,7.21
		c5.67,2.68,11.48,5,17.51,6.75C175.4,371.59,181.02,372.83,187.02,372.65z M66.38,284.25c3.24,0.09,6.46-0.16,9.66-0.61
		c2.66-0.37,5.3-0.87,7.76-2.01c1.09-0.51,1.7-1.67,1.3-2.81c-1.06-3.03-2.83-5.47-6.04-6.48c-3.76-1.18-7.34-0.57-10.69,1.42
		c-3.58,2.12-5.76,5.27-6.63,9.33c-0.24,1.1-0.19,1.15,0.9,1.16C63.88,284.26,65.13,284.25,66.38,284.25z M85.86,275.58
		c0.17-1.39,0.28-2.61,0.47-3.82c0.51-3.15,0.56-6.34,0.9-9.5c0.24-2.25,0.37-4.5,0.57-6.75c0.06-0.71-0.05-1.23-0.7-1.71
		c-1.55-1.17-2.99-2.49-4.53-3.68c-1.08-0.83-1.96-1.86-2.99-2.93c-0.21,3.14-0.41,6.12-0.62,9.1c-0.12,1.72-0.25,3.43-0.43,5.14
		c-0.27,2.56-0.59,5.12-0.91,7.67c-0.07,0.61,0.09,0.92,0.75,1.05c1.72,0.33,3.29,1.05,4.65,2.15
		C84.12,273.17,84.97,274.28,85.86,275.58z M227.58,338.66c-1.59-1.24-3.07-2.34-4.49-3.52c-2.51-2.09-4.81-4.39-6.89-6.91
		c-1.61-1.96-2.98-4.07-4.04-6.37c-0.21-0.46-0.41-0.66-0.92-0.26c-0.93,0.72-1.91,1.39-2.9,2.03c-0.51,0.33-0.59,0.58-0.24,1.13
		c1.84,2.92,3.84,5.73,6.1,8.33c2.6,3,5.33,5.85,8.88,7.76c0.43,0.23,0.72,0.35,1.07-0.07C225.01,339.77,226.1,339.07,227.58,338.66
		z M223.13,349.63c0.03,1.9,0.42,3.62,1.17,5.28c0.26,0.59,0.45,0.64,0.88,0.1c2.21-2.79,4.1-5.79,5.64-9
		c0.59-1.24,1.19-2.48,1.59-3.8c0.09-0.3,0.25-0.56-0.14-0.83c-2.85-1.97-5.96-0.79-7.22,1.47
		C223.87,344.98,223.21,347.27,223.13,349.63z M320.81,212.27c-0.04-1.09-0.25-2.06-0.49-3.02c-0.29-1.16-0.75-2.25-1.62-3.11
		c-0.73-0.73-2.21-1.16-2.8-0.75c-1.59,1.11-2.96,2.44-3.75,4.26c-0.14,0.32-0.26,0.63-0.01,0.99c1.12,1.6,2.3,3.14,3.81,4.41
		c0.44,0.37,0.78,0.37,1.27,0.08c0.93-0.56,1.88-1.09,2.86-1.56C320.73,213.28,321.07,212.91,320.81,212.27z M122.66,123.94
		c0.82-1.18,1.37-2.35,1.82-3.57c0.05-0.14,0.06-0.33,0.01-0.47c-0.66-1.66-1.16-3.37-1.7-5.08c-0.27-0.84-1.04-0.47-1.57-0.44
		c-0.55,0.04-0.34,0.61-0.31,0.94c0.07,0.76,0.23,1.51,0.36,2.26C121.63,119.67,121.95,121.78,122.66,123.94z M323.12,213.48
		c0.41,1.87,4.66,6.61,5.92,6.63C327,217.97,324.93,215.95,323.12,213.48z M154.92,327.25c0.02-0.02,0.04-0.03,0.06-0.05
		c-0.02-0.02-0.05-0.06-0.05-0.05c-0.03,0.02-0.06,0.05-0.08,0.07C154.87,327.24,154.89,327.25,154.92,327.25z"/>
	<path style="fill:#EBEAEA;" d="M189.86,20.05c5.69,0.15,11.89,1.4,18.02,3.01c15.5,4.05,29.45,11.1,41.53,21.69
		c9.65,8.45,17.05,18.59,22.39,30.25c0.15,0.32,0.29,0.59,0.08,0.98c-2.54,4.64-4.39,9.58-6.28,14.5
		c-4.39,11.38-8.62,22.83-13.1,34.18c-4.26,10.78-10.84,19.93-20.19,26.91c-7.69,5.75-16.49,7.68-25.92,6.86
		c-11.64-1-21.84-5.76-31.21-12.47c-6.71-4.8-12.96-10.14-18.21-16.57c-5.34-6.54-9.24-13.79-10.95-22.12
		c-1.72-8.35-0.92-16.51,1.61-24.62c2.65-8.49,6.94-15.97,12.93-22.52c3.42-3.74,6.61-7.68,8.96-12.2
		c2.02-3.89,3.43-8.05,4.94-12.16c1.43-3.87,2.74-7.77,3.91-11.72c0.48-1.63,1.53-2.67,3.19-3.14
		C184.06,20.22,186.61,20.09,189.86,20.05z M200.23,128.39c3.28-0.04,7.04-0.39,10.76-1.15c6.6-1.36,12.82-3.63,18.4-7.47
		c4.06-2.79,6.82-6.45,7.63-11.43c0.68-4.24-1-8.54-5.13-10.57c-2.32-1.14-4.77-1.78-7.28-2.24c-5.35-0.97-10.77-1.38-16.15-2.11
		c-3.78-0.51-7.55-1.07-11.26-1.97c-2.86-0.7-5.69-1.48-8.21-3.07c-4.39-2.77-7.41-6.77-9.91-11.21c-1.6-2.83-2.94-5.83-4.98-8.39
		c-1.74-2.19-3.9-3.72-6.84-3.61c-2.54,0.09-4.65,1.28-6.44,3.02c-1.88,1.82-3.16,4.05-4.22,6.44c-1.81,4.08-2.66,8.36-2.84,12.79
		c-0.08,1.88,0.12,3.75,0.36,5.62c0.49,3.83,1.55,7.49,3.21,10.96c2.37,4.98,5.55,9.35,9.72,13.02c3.29,2.9,6.87,5.31,10.89,7.01
		C184.89,126.94,192.16,128.35,200.23,128.39z M250.25,81.34c-0.2-4.42-1.77-8.34-4.43-11.84c-1.41-1.86-3.09-3.43-5.44-4.04
		c-5.59-1.46-10.9-0.69-15.92,2.11c-1.22,0.68-2.21,1.64-2.85,2.91c-0.65,1.31,0.03,2.58,1.48,2.73c0.83,0.09,1.66,0.03,2.49-0.1
		c2.97-0.45,5.87-1.28,8.88-1.53c3.83-0.31,5.76,0.72,7.51,4.14c0.95,1.86,1.5,3.86,2.1,5.85c0.4,1.31,0.73,2.66,1.5,3.82
		c1.02,1.54,3.05,1.41,3.87-0.24C250.03,83.96,250.24,82.67,250.25,81.34z M199.49,55.19c-0.18-3.68-1.42-7.63-4.25-11.01
		c-1.18-1.41-2.65-2.31-4.5-2.5c-5.66-0.6-10.6,1.1-14.92,4.72c-0.77,0.64-1.34,1.45-1.8,2.35c-0.36,0.7-0.49,1.43-0.06,2.1
		c0.44,0.7,1.19,0.64,1.91,0.54c1.21-0.16,2.36-0.56,3.51-0.95c2.15-0.73,4.28-1.51,6.51-1.94c3.27-0.63,4.91,0.21,6.28,3.25
		c0.42,0.94,0.71,1.91,0.98,2.9c0.53,1.94,0.78,3.96,1.52,5.84c0.29,0.75,0.64,1.57,1.61,1.55c0.97-0.03,1.76-0.5,2.2-1.44
		C199.22,59.09,199.49,57.5,199.49,55.19z"/>
	<path style="fill:#079D9C;" d="M185.04,163.59c0.84-1.91,1.84-3.71,3.16-5.34c0.42-0.52,0.74-0.68,1.42-0.34
		c8.19,4.18,16.69,7.64,25.46,10.4c7.32,2.3,14.76,4.07,22.35,5.25c4.01,0.62,8.02,1.13,12.07,1.34c0.67,0.03,1.33,0.14,2,0.16
		c1.22,0.04,1.23,0.03,0.98,1.18c-1.1,5.25-1.01,10.48,0.4,15.65c0.34,1.24-0.01,2.35-0.21,3.48c-0.99,5.36-1.86,10.75-2.59,16.15
		c-0.58,4.27-1.06,8.55-1.42,12.84c-0.68,8.11-0.41,16.24-0.6,24.36c-0.08,3.42-0.06,6.85-0.18,10.27
		c-0.17,4.83-0.35,9.65-0.34,14.48c0,1.62-0.84,2.87-1.55,4.17c-1.41,2.6-3.21,4.93-5.21,7.1c-4.89,5.29-10.46,9.78-16.47,13.73
		c-0.58,0.38-1.04,0.43-1.67,0.13c-5.34-2.55-11.03-3.99-16.81-5.16c-3.91-0.79-7.85-1.38-11.81-1.84
		c-3.39-0.39-6.8-0.65-10.21-0.85c-4.99-0.3-9.98-0.2-14.98-0.14c-2.58,0.03-5.17,0.19-7.74,0.53c-0.89,0.12-1.59-0.06-2.32-0.75
		c-3.39-3.22-7.15-5.99-10.89-8.79c-3.74-2.8-7.45-5.63-11.21-8.39c-0.95-0.69-0.92-1.63-0.96-2.55c-0.16-4.12,0.13-8.18,2.03-11.96
		c0.06-0.11,0.05-0.25,0.08-0.37c4.38-0.36,8.66-1.31,12.93-2.26c10.27-2.27,20.44-4.95,30.61-7.62c1.63-0.43,2.66-1.27,3.28-2.86
		c5.63-14.47,11.29-28.93,16.96-43.39c0.69-1.75,0.7-3.34-0.15-5.13C196.13,185.83,191.22,174.4,185.04,163.59z"/>
	<path style="fill:#079D9C;" d="M201.21,159.9c1.91,0.08,3.79,0.49,5.7,0.64c2.69,0.21,5.37,0.19,8.04-0.12
		c5.03-0.59,9.8-2.11,14.25-4.54c5.26-2.87,9.71-6.7,13.6-11.25c4.06-4.76,7.34-10,9.99-15.64c2.05-4.38,3.61-8.95,5.33-13.46
		c4.48-11.74,8.79-23.54,13.69-35.11c1.45-3.43,3.76-6.11,6.51-8.54c3.54-3.13,7.33-5.88,11.45-8.18c5.52-3.08,11.32-5.33,17.6-6.27
		c4.85-0.73,9.68-0.8,14.45,0.41c7.74,1.96,13.02,6.84,16.2,14.06c1.64,3.71,2.35,7.69,2.72,11.7c0.82,8.77-0.58,17.32-2.78,25.77
		c-1.94,7.45-4.61,14.62-7.97,21.55c-3.43,7.08-7.52,13.74-12.51,19.84c-5.68,6.96-12.75,11.92-21.15,15.09
		c-6.66,2.51-13.52,4.19-20.56,5.23c-7.46,1.11-14.97,1.33-22.48,1.07c-4.84-0.17-9.67-0.71-14.47-1.43
		c-9.73-1.46-19.21-3.89-28.47-7.18c-2.95-1.05-5.85-2.24-8.77-3.38c-0.14-0.05-0.25-0.18-0.38-0.27L201.21,159.9z M273.09,127.5
		c0.02,0.99,0.07,1.98,0.17,2.97c0.44,4.53,2.2,8.38,5.71,11.35c2.53,2.15,5.36,3.46,8.79,3.07c2.26-0.26,4.48-0.69,6.63-1.42
		c7.09-2.39,13.24-6.35,18.71-11.4c6.47-5.98,11.29-13.1,14.63-21.25c2.99-7.3,3.42-14.63,0.49-22.02
		c-1.32-3.32-3.23-6.16-6.78-7.55c-4.18-1.64-8.45-2.36-12.94-1.93c-3.99,0.39-7.67,1.62-11.15,3.55c-4.32,2.4-7.84,5.74-10.96,9.51
		c-2.41,2.91-4.6,6-6.21,9.44c-1.92,4.11-3.58,8.34-4.86,12.71C274.07,118.76,273.16,123.05,273.09,127.5z"/>
	<path style="fill:#079D9C;" d="M333.64,59.37c-1.22-0.5-2.16-1.44-3.3-2.09c-3.66-2.09-7.56-3.35-11.74-3.89
		c-8.04-1.03-15.63,0.62-22.99,3.68c-6.73,2.8-12.77,6.73-18.38,11.35c-0.86,0.71-1.75,1.41-2.54,2.19
		c-0.61,0.61-0.86,0.49-1.2-0.24c-1.93-4.05-4.22-7.9-6.75-11.6c-2.7-3.93-5.67-7.65-8.91-11.16c-6.07-6.59-12.95-12.17-20.65-16.73
		c-5.88-3.48-12.13-6.19-18.51-8.59c-5.54-2.08-11.23-3.65-17.05-4.73c-4.99-0.92-10.02-1.27-15.08-1.01
		c-1.39,0.07-2.79,0.22-4.25,0.35c0.81-0.44,1.6-0.93,2.44-1.32c5.41-2.54,11.13-4.12,16.94-5.42c4.95-1.11,9.97-1.86,15.01-2.44
		c2.6-0.3,5.22-0.44,7.83-0.63c4.47-0.32,8.96-0.25,13.44-0.18c4.76,0.08,9.49,0.52,14.22,1.1c8.3,1.02,16.42,2.83,24.31,5.58
		c10.7,3.73,20.87,8.6,30.28,14.97c5.56,3.76,10.64,8.09,15.17,13.05c4.71,5.16,8.57,10.9,11.57,17.22
		C333.55,59,333.58,59.19,333.64,59.37L333.64,59.37z"/>
	<path style="fill:#117574;" d="M63.02,208.93c-0.04,1.83,0.16,3.48,0.37,5.14c0.62,4.94,1.91,9.69,3.8,14.28
		c2.32,5.62,5.41,10.8,9.45,15.35c1.14,1.29,1.13,2.67,0.94,4.09c-0.17,1.3-0.2,2.61-0.28,3.9c-0.27,4.2-0.69,8.38-1.03,12.57
		c-0.13,1.55-0.36,3.1-0.57,4.64c-0.07,0.52-0.19,0.92-0.92,0.94c-4.08,0.12-7.56,1.71-10.43,4.57c-0.72,0.71-1.41,1.01-2.43,1.01
		c-5.73-0.01-11.36-0.84-16.95-2.03c-3.93-0.83-7.85-1.73-11.65-3.02c-3.76-1.28-7.43-2.76-10.33-5.66
		c-1.58-1.59-2.2-3.55-2.62-5.64c-0.61-3.06-0.97-6.15-1.19-9.27c-0.21-3.06-0.45-6.12-0.34-9.18c0.2-5.23,0.6-10.44,2.17-15.47
		c0.41-1.31,0.96-2.57,1.58-3.8c0.39-0.77,0.82-0.83,1.51-0.35c2.2,1.54,4.31,3.19,6.62,4.56c4.34,2.59,9.02,4.36,13.83,5.82
		c3.36,1.02,6.77,1.83,10.21,2.51c0.79,0.16,0.73,0.83,0.75,1.36c0.2,4.17,0.98,8.23,2.45,12.13c0.64,1.7,1.42,3.36,2.53,4.82
		c0.21,0.28,0.44,0.82,0.86,0.33c0.36-0.41,1.28-0.62,0.67-1.51c-1.24-1.8-2.1-3.79-2.77-5.87c-0.85-2.62-1.24-5.32-1.64-8.03
		c-0.49-3.34,0.3-6.54,0.85-9.75c0.76-4.39,1.7-8.75,2.83-13.07c0.45-1.7,0.93-3.38,1.41-5.07
		C62.72,209.17,62.82,209.12,63.02,208.93z"/>
	<path style="fill:#C1BECB;" d="M113.23,236.81c-0.02,4.55-0.05,9.09-0.35,13.63c-0.05,0.72-0.21,0.82-0.9,0.6
		c-5.53-1.81-11.13-2.3-16.8-0.63c-1.73,0.51-3.36,1.23-4.89,2.18c-0.43,0.27-0.73,0.32-1.18,0c-12.25-8.79-20.16-20.43-23.2-35.27
		c-0.91-4.44-1.2-8.94-0.99-13.46c0.07-1.61,1.13-2.82,1.78-4.19c0.74-1.54,2.11-2,3.62-2.33c4.93-1.08,9.92-1.09,14.91-0.88
		c6.31,0.27,12.54,1.15,18.64,2.84c2.13,0.59,4.22,1.29,6.26,2.12c0.4,0.16,0.69,0.32,0.76,0.85c1.29,10.42,2.28,20.87,2.33,31.38
		C113.23,234.7,113.23,235.75,113.23,236.81z"/>
	<path style="fill:#079D9C;" d="M135.71,257.3c-1.17,1.98-1.75,4.16-2.15,6.4c-0.38,2.11-0.42,4.25-0.38,6.52
		c-1.06-0.51-1.77-1.28-2.55-1.94c-5.19-4.38-10.09-9.06-14.49-14.25c-0.45-0.53-0.49-1.08-0.42-1.7c0.23-2.1,0.29-4.2,0.38-6.31
		c0.22-5.09,0.25-10.18,0.13-15.26c-0.11-4.98-0.43-9.95-0.87-14.92c-0.35-4.01-0.8-8-1.22-12c-0.11-1.05-0.17-2.11-0.42-3.13
		c-0.31-1.22-0.02-2.23,0.59-3.28c2.28-3.92,4.94-7.57,8.26-10.66c2.24-2.09,4.69-3.96,7-5.98c3.74-3.26,7.66-6.36,10.87-10.13
		c2.45-2.88,4.47-6.14,6.41-9.42c3.54-5.99,5.12-12.64,6.71-19.3c0.79-3.32,1.57-6.65,2.36-9.97c0.04-0.15,0.12-0.29,0.2-0.47
		c0.55,0.24,0.78,0.76,1.12,1.16c4.71,5.48,10.01,10.33,15.74,14.72c3.38,2.59,6.84,5.06,10.47,7.28c0.68,0.42,1.39,0.81,2.12,1.12
		c0.81,0.35,0.96,0.71,0.34,1.43c-1.19,1.39-2.13,2.96-2.79,4.68c-0.08,0.21-0.12,0.43-0.17,0.64c-1.52,0.24-3.04,0.42-4.55,0.72
		c-8.96,1.83-17.76,4.33-26.56,6.8c-0.92,0.26-1.66,0.78-2.2,1.6c-0.69,1.04-1.43,2.05-2.15,3.07
		c-7.33,10.42-14.67,20.83-21.99,31.25c-0.81,1.15-1.32,2.39-1.03,3.86c1.71,8.82,3.48,17.63,5.49,26.39
		C131.57,243.34,133.01,250.5,135.71,257.3z"/>
	<path style="fill:#C1BECB;" d="M174.34,293.79c14.22,0.02,25.78,2.21,37.12,5.72c2.44,0.75,4.84,1.66,7.26,2.46
		c0.77,0.25,0.7,0.48,0.18,0.98c-2.23,2.13-4.34,4.36-6.05,6.93c-1.16,1.74-2.14,3.56-2.47,5.67c-0.17,1.08-0.11,2.13,0.37,3.09
		c0.3,0.59,0.07,0.83-0.34,1.15c-4.3,3.33-9.15,5.59-14.29,7.27c-3.01,0.99-6.08,1.8-9.21,2.25c-1.73,0.25-3.52,0.11-5.27,0.08
		c-7.12-0.13-14.17-0.89-21.09-2.68c-3.47-0.9-6.83-2.11-10.1-3.61c-1.37-0.63-2.03-1.78-2.71-2.99c-0.17-0.3-0.04-0.56,0.02-0.83
		c1.06-5.08,3.26-9.68,5.92-14.08c2.01-3.32,4.28-6.45,6.8-9.41c0.31-0.36,0.62-0.57,1.1-0.66
		C166.55,294.19,171.58,293.76,174.34,293.79z"/>
	<path style="fill:#117574;" d="M186.23,363.84c-2.34-0.15-4.63-0.39-6.88-1.11c-6.48-2.08-12.93-4.24-19.31-6.6
		c-3.86-1.43-7.77-2.76-11.43-4.68c-2.69-1.41-5.29-2.97-7.7-4.83c-0.22-0.17-0.57-0.36-0.53-0.64c0.06-0.39,0.53-0.29,0.8-0.36
		c2.33-0.55,4.72-0.67,7.08-1.03c5-0.76,9.98-1.66,14.25-4.61c1.36-0.94,2.6-2.09,2.98-3.85c0.13-0.61,0.47-0.49,0.92-0.31
		c4.05,1.66,8.2,3.03,12.46,4.05c2.2,0.53,4.43,0.86,6.66,1.24c0.96,0.16,0.63-0.68,0.81-1.08c0.26-0.61-0.14-0.87-0.68-0.96
		c-1.29-0.21-2.58-0.37-3.86-0.62c-5.63-1.09-11.04-2.88-16.3-5.16c-3.38-1.47-6.59-3.25-9.65-5.3c-0.2-0.13-0.6-0.22-0.47-0.51
		c0.17-0.37,0.5-0.06,0.74,0.01c4.75,1.53,9.61,2.47,14.55,3.11c5.37,0.7,10.76,0.86,16.15,0.69c2.28-0.07,4.5-0.82,6.72-1.42
		c4.02-1.07,7.92-2.48,11.6-4.46c0.64-0.34,0.96-0.15,1.31,0.41c2.06,3.32,4.35,6.45,6.95,9.37c2.22,2.5,4.61,4.77,7.4,6.63
		c0.63,0.42,1.67,0.53,1.81,1.27c0.11,0.63-0.39,1.38-0.66,2.06c-0.42,1.05-0.58,2.16-0.69,3.26c-0.08,0.79-0.47,1.21-1.05,1.58
		c-5.21,3.38-10.65,6.34-16.3,8.93c-3.87,1.78-7.9,3.1-12.01,4.17C190.03,363.6,188.12,363.7,186.23,363.84z"/>
	<path style="fill:#117574;" d="M108.42,70.72c2.43-0.16,4.81,0.32,7.19,0.79c0.87,0.17,1.52,0.8,2.23,1.28
		c0.94,0.63,1.72,1.43,2.47,2.26c1.21,1.36,1.52,2.93,1.13,4.71c-0.82,3.67-1.41,7.38-1.5,11.14c-0.01,0.53-0.33,0.71-0.68,0.94
		c-1.61,1.05-3.13,2.18-4.34,3.72c-1.33,1.68-2.06,3.53-2.33,5.66c-0.39,3.09,0.23,5.89,1.87,8.49c0.95,1.5,2.1,2.85,3.73,3.63
		c0.86,0.42,0.66,1.2,0.75,1.81c0.51,3.4,0.91,6.82,2.16,10.06c0.2,0.51,0.05,0.86-0.28,1.2c-2.66,2.64-5.83,4.3-9.56,4.84
		c-4.99,0.73-9.24-1.22-13.37-3.66c-1.38-0.82-2.18-1.87-2.71-3.45c-3.17-9.44-6.48-18.84-9.75-28.25c-0.83-2.4-1.41-4.81-1.27-7.4
		c0.19-3.33,1.34-6.18,3.62-8.62c3.92-4.21,8.64-7.04,14.21-8.46C104.08,70.89,106.22,70.6,108.42,70.72z"/>
	<path style="fill:#C1BECB;" d="M152.78,131.44c0.04,1.29-0.48,2.48-0.77,3.7c-1.25,5.35-2.37,10.73-4,15.99
		c-1.51,4.88-3.98,9.26-6.86,13.45c-0.24,0.35-0.43,0.58-0.91,0.3c-0.59-0.34-1.28-0.37-1.95-0.39c-4.96-0.12-9.92-0.21-14.88-0.39
		c-2.88-0.1-5.74-0.33-8.58-0.89c-1.09-0.22-1.95-0.74-2.7-1.53c-2.53-2.68-4.4-5.81-6.19-8.99c-3.82-6.79-6.45-14.04-8.51-21.52
		c-0.13-0.46-0.27-0.92-0.4-1.38c-0.02-0.05,0.01-0.12,0.02-0.26c0.37-0.03,0.62,0.25,0.9,0.41c3.22,1.86,6.62,3.31,10.38,3.38
		c7.4,0.14,12.96-3.12,16.7-9.49c0.16-0.27,0.21-0.61,0.57-0.79c1.24,3.16,2.49,6.3,4.14,9.26c0.86,1.54,1.8,3.03,3.08,4.27
		c1.44,1.39,3.08,2.04,5.15,1.64c4.94-0.95,9.28-3.2,13.43-5.9C151.86,132,152.32,131.73,152.78,131.44L152.78,131.44z"/>
	<path style="fill:#FFFFFF;" d="M135.71,257.3c-2.7-6.81-4.14-13.96-5.77-21.06c-2.01-8.76-3.77-17.57-5.49-26.39
		c-0.29-1.48,0.22-2.71,1.03-3.86c7.33-10.42,14.66-20.84,21.99-31.25c0.72-1.02,1.46-2.03,2.15-3.07c0.54-0.82,1.28-1.34,2.2-1.6
		c8.8-2.47,17.6-4.97,26.56-6.8c1.5-0.31,3.03-0.49,4.55-0.72c0.93-0.12,1.6,0.29,2.11,1.03c6.18,10.81,11.1,22.24,16.41,33.47
		c0.85,1.79,0.83,3.38,0.15,5.13c-5.67,14.46-11.33,28.92-16.96,43.39c-0.62,1.59-1.65,2.43-3.28,2.86
		c-10.17,2.67-20.34,5.35-30.61,7.62c-4.28,0.95-8.55,1.9-12.93,2.26C136.93,258.37,136.15,258.18,135.71,257.3z M140.1,252.99
		c1.7-0.32,3.4-0.61,5.09-0.96c11.39-2.36,22.65-5.28,33.89-8.28c0.62-0.17,0.96-0.43,1.2-1.04c5.32-13.66,10.64-27.33,16.04-40.96
		c0.55-1.4,0.55-2.49-0.09-3.85c-4.55-9.76-9.02-19.56-14.02-29.1c-0.44-0.84-0.92-0.94-1.73-0.77c-8.87,1.8-17.58,4.23-26.29,6.66
		c-0.43,0.12-0.71,0.37-0.96,0.72c-7.77,11.05-15.54,22.09-23.32,33.12c-0.27,0.39-0.4,0.73-0.3,1.23
		c2.06,10.44,4.19,20.87,6.65,31.23c0.9,3.79,1.83,7.58,3.02,11.3C139.41,252.71,139.49,253.14,140.1,252.99z"/>
	<path style="fill:#117574;" d="M324.93,170.47c1.94,0.14,3.85,0.37,5.75,0.87c1.48,0.39,2.36,1.55,3.29,2.52
		c1.41,1.47,2.89,2.88,4.21,4.45c3.05,3.63,5.48,7.63,7.43,11.92c1.74,3.81,2.95,7.81,4.11,11.84c0.66,2.27,0.1,3.89-1.27,5.58
		c-2.57,3.16-5.28,6.15-8.67,8.47c-2.37,1.62-4.93,2.82-7.68,3.64c-0.39,0.12-0.6-0.04-0.84-0.27c-3-2.93-5.98-5.88-8.16-9.5
		c-0.92-1.53-1.33-3.31-2.46-4.75c-0.82-1.05-1.91-1.89-2.38-3.21c-0.33-0.93-0.79-1.82-1.13-2.75c-0.69-1.86-1.84-3.42-3.12-4.91
		c-2.03-2.35-4.25-4.51-6.64-6.5c-0.37-0.3-0.32-0.67-0.18-1.05c1.68-4.73,4.05-9.03,7.82-12.45c2.33-2.11,5-3.52,8.2-3.75
		c0.28-0.02,0.56-0.13,0.84-0.16C324.35,170.45,324.64,170.47,324.93,170.47z"/>
	<path style="fill:#C1BECB;" d="M327.98,168.57c-1.69-0.03-3.3-0.12-4.92,0.05c-4.36,0.45-7.83,2.59-10.77,5.72
		c-3.59,3.81-5.89,8.34-7.34,13.31c-0.24,0.82-0.53,0.93-1.32,0.71c-7.85-2.26-15.85-2.72-23.96-1.99
		c-8.26,0.74-16.29,2.52-24.07,5.4c-0.6,0.22-0.75,0.06-0.89-0.48c-1.28-5.09-1.28-10.19-0.2-15.31c0.12-0.56,0.34-0.77,0.95-0.75
		c5.8,0.16,11.59-0.05,17.35-0.73c11.94-1.42,23.45-4.28,33.96-10.38c0.86-0.5,1.73-1,2.5-1.6c0.74-0.58,1.44-0.69,2.38-0.54
		c4.88,0.78,9.52,2.21,13.73,4.86C326.27,167.38,327.11,167.99,327.98,168.57z"/>
	<path style="fill:#117574;" d="M61.88,277.3c-0.87,1.74-1.62,3.31-1.98,5.05c-0.39,1.91-0.43,1.81-2.45,1.57
		c-1.51-0.18-3.04-0.28-4.56-0.43c-3.04-0.29-6.07-0.72-9.08-1.22c-6.19-1.04-12.32-2.36-18.39-3.98c-1.08-0.29-2.14-0.67-3.23-0.89
		c-2.45-0.51-3.92-2.35-5.45-4.03c-3.05-3.36-5.15-7.29-6.41-11.65c-0.83-2.85-1.27-5.77-1.54-8.73c-0.23-2.56-0.17-5.11-0.14-7.67
		c0.05-3.82,0.53-7.62,1.08-11.4c0.52-3.63,1.25-7.21,1.97-10.8c0.16-0.78,0.55-1.17,1.31-1.43c2.52-0.87,5.06-1.56,7.85-1.42
		c-0.45,1.06-0.92,2.03-1.28,3.04c-1.3,3.62-1.94,7.37-2.33,11.2c-0.39,3.83-0.48,7.66-0.32,11.49c0.21,5.02,0.62,10.04,1.83,14.95
		c0.74,3.02,2.47,5.27,4.96,7.03c3.75,2.64,8.01,4.06,12.35,5.31c4.81,1.38,9.71,2.39,14.64,3.21
		C54.34,277.09,57.99,277.45,61.88,277.3z"/>
	<path style="fill:#117574;" d="M187.02,372.65c-6,0.18-11.62-1.07-17.18-2.68c-6.03-1.75-11.83-4.08-17.51-6.75
		c-4.43-2.09-8.71-4.42-12.75-7.21c-1.35-0.93-1.55-2.18-1.59-3.56c-0.04-1.56-0.14-3.13,0.18-4.69c0.04-0.21-0.08-0.49,0.2-0.58
		c0.2-0.06,0.33,0.16,0.47,0.28c3.25,2.67,6.83,4.84,10.64,6.61c3.45,1.6,7.04,2.87,10.6,4.19c5.88,2.17,11.85,4.05,17.77,6.08
		c3.38,1.16,6.83,1.61,10.37,1.37c3.33-0.23,6.5-1.26,9.65-2.29c6.23-2.04,12.02-5.04,17.69-8.28c1.77-1.01,3.51-2.1,5.25-3.17
		c0.37-0.23,0.51-0.28,0.6,0.24c0.27,1.49,0.74,2.91,1.5,4.23c0.33,0.58,0.19,0.97-0.25,1.43c-6.41,6.75-14.2,11.1-23.19,13.34
		C195.34,372.23,191.14,372.8,187.02,372.65z"/>
	<path style="fill:#C1BECB;" d="M66.38,284.25c-1.25,0-2.5,0.01-3.74,0c-1.09-0.01-1.14-0.07-0.9-1.16
		c0.88-4.06,3.06-7.21,6.63-9.33c3.35-1.98,6.93-2.59,10.69-1.42c3.21,1,4.98,3.45,6.04,6.48c0.4,1.14-0.21,2.3-1.3,2.81
		c-2.46,1.15-5.1,1.64-7.76,2.01C72.83,284.08,69.61,284.34,66.38,284.25z"/>
	<path style="fill:#C1BECB;" d="M122.4,93.59c0.06,0.41,0.41,0.33,0.67,0.4c1.33,0.34,2.68,0.57,3.97,1.06
		c0.69,0.26,1.05,0.65,1.2,1.42c0.48,2.54,0.44,5.09,0.28,7.64c-0.04,0.74-0.29,1.42-0.67,2.07c-1.35,2.33-3.15,4.25-5.22,5.95
		c-0.31,0.25-0.62,0.28-0.98,0.25c-1.51-0.14-2.81-0.7-3.95-1.74c-4.01-3.7-4.74-11.34,0.03-15.17c0.4-0.32,0.82-0.61,1.22-0.91
		c0.16,0,0.31-0.04,0.39-0.2c0,0-0.01,0-0.01,0c0.08-0.04,0.16-0.08,0.25-0.12c0,0,0.02,0.01,0.01,0.01
		C120.55,94.09,121.39,93.49,122.4,93.59z"/>
	<path style="fill:#117574;" d="M85.86,275.58c-0.88-1.3-1.73-2.41-2.83-3.29c-1.36-1.1-2.93-1.82-4.65-2.15
		c-0.66-0.13-0.83-0.44-0.75-1.05c0.31-2.56,0.63-5.11,0.91-7.67c0.18-1.71,0.31-3.43,0.43-5.14c0.21-2.98,0.41-5.96,0.62-9.1
		c1.03,1.07,1.91,2.1,2.99,2.93c1.54,1.19,2.97,2.51,4.53,3.68c0.65,0.49,0.77,1,0.7,1.71c-0.2,2.25-0.33,4.51-0.57,6.75
		c-0.34,3.16-0.39,6.35-0.9,9.5C86.13,272.97,86.03,274.19,85.86,275.58z"/>
	<path style="fill:#117574;" d="M227.58,338.66c-1.48,0.4-2.57,1.1-3.43,2.13c-0.35,0.41-0.64,0.3-1.07,0.07
		c-3.56-1.91-6.28-4.77-8.88-7.76c-2.26-2.61-4.26-5.41-6.1-8.33c-0.35-0.55-0.28-0.8,0.24-1.13c0.99-0.64,1.97-1.31,2.9-2.03
		c0.51-0.39,0.71-0.2,0.92,0.26c1.07,2.3,2.43,4.42,4.04,6.37c2.08,2.52,4.38,4.82,6.89,6.91
		C224.5,336.32,225.99,337.42,227.58,338.66z"/>
	<path style="fill:#C1BECB;" d="M223.13,349.63c0.08-2.36,0.73-4.64,1.92-6.77c1.26-2.26,4.37-3.44,7.22-1.47
		c0.39,0.27,0.23,0.53,0.14,0.83c-0.4,1.32-0.99,2.56-1.59,3.8c-1.54,3.21-3.43,6.2-5.64,9c-0.43,0.54-0.61,0.48-0.88-0.1
		C223.56,353.25,223.16,351.52,223.13,349.63z"/>
	<path style="fill:#C1BECB;" d="M320.81,212.27c0.25,0.63-0.08,1-0.73,1.31c-0.98,0.47-1.93,0.99-2.86,1.56
		c-0.49,0.3-0.83,0.29-1.27-0.08c-1.51-1.27-2.69-2.81-3.81-4.41c-0.25-0.36-0.13-0.67,0.01-0.99c0.79-1.82,2.16-3.15,3.75-4.26
		c0.59-0.41,2.06,0.02,2.8,0.75c0.87,0.86,1.33,1.95,1.62,3.11C320.56,210.22,320.77,211.19,320.81,212.27z"/>
	<path style="fill:#117574;" d="M122.66,123.94c-0.71-2.16-1.03-4.26-1.39-6.35c-0.13-0.75-0.28-1.5-0.36-2.26
		c-0.03-0.33-0.25-0.9,0.31-0.94c0.53-0.04,1.3-0.41,1.57,0.44c0.54,1.7,1.04,3.41,1.7,5.08c0.05,0.14,0.04,0.33-0.01,0.47
		C124.03,121.59,123.48,122.76,122.66,123.94z"/>
	<path style="fill:#117574;" d="M121.85,91.48c0.12-3.37,0.5-6.71,1.24-10c0.51-2.3,0.83-4.57-0.48-6.73c0,0,0,0,0,0
		c1.1,0.24,1.6,1.22,2.34,1.89c0.25,0.23,0.03,0.49-0.03,0.72c-0.7,2.45-1.25,4.94-1.61,7.47c-0.31,2.21-0.66,4.41-0.73,6.64
		C122.34,91.47,122.1,91.47,121.85,91.48z"/>
	<path style="fill:#117574;" d="M310,193.14c1.06,0.67,1.76,1.7,2.61,2.58c1.94,2.03,2.88,4.62,3.89,7.16
		c0.07,0.18,0.33,0.43,0.02,0.57c-0.29,0.13-0.65,0.14-0.86-0.18c-0.19-0.29-0.34-0.61-0.48-0.93c-1.36-3.14-3.03-6.1-5.07-8.85
		C310.04,193.41,310.04,193.26,310,193.14C310,193.14,310,193.14,310,193.14z"/>
	<path style="fill:#117574;" d="M323.12,213.48c1.82,2.47,3.89,4.49,5.92,6.63C327.78,220.09,323.53,215.35,323.12,213.48z"/>
	<path style="fill:#434451;" d="M121.85,91.48c0.24,0,0.49-0.01,0.73-0.01c-0.06,0.71-0.12,1.42-0.19,2.13
		c-1.01-0.1-1.85,0.5-2.8,0.65c0.14-0.62,0.72-0.79,1.18-0.96C121.67,92.95,122,92.38,121.85,91.48z"/>
	<path style="fill:#079D9C;" d="M201.22,159.89c-0.09-0.02-0.18-0.04-0.27-0.06c0.14-0.17,0.2-0.05,0.26,0.07
		C201.21,159.9,201.22,159.89,201.22,159.89z"/>
	<path style="fill:#434451;" d="M119.35,94.35c-0.08,0.16-0.23,0.2-0.39,0.2C119.04,94.39,119.17,94.34,119.35,94.35z"/>
	<path style="fill:#117574;" d="M154.92,327.25c-0.02-0.01-0.05-0.02-0.07-0.03c0.03-0.03,0.05-0.05,0.08-0.07
		c0,0,0.03,0.03,0.05,0.05C154.96,327.22,154.94,327.24,154.92,327.25z"/>
	<path style="fill:#079D9C;" d="M333.64,59.37c0.02,0.03,0.05,0.06,0.07,0.1c-0.02-0.01-0.05,0-0.06-0.02
		C333.65,59.43,333.65,59.4,333.64,59.37C333.64,59.37,333.64,59.37,333.64,59.37z"/>
	<path style="fill:#117574;" d="M122.42,74.55c-0.03-0.01-0.05-0.03-0.08-0.04C122.37,74.53,122.39,74.54,122.42,74.55L122.42,74.55
		z"/>
	<path style="fill:#117574;" d="M122.41,74.56c0.07,0.06,0.13,0.13,0.2,0.19c0,0,0,0,0,0C122.54,74.68,122.48,74.62,122.41,74.56
		C122.42,74.55,122.41,74.56,122.41,74.56z"/>
	<path style="fill:#C1BECB;" d="M152.78,131.45c0.04-0.04,0.08-0.08,0.11-0.11c0.01,0.03,0.03,0.06,0.02,0.09
		C152.89,131.5,152.84,131.51,152.78,131.45C152.78,131.44,152.78,131.45,152.78,131.45z"/>
	<path style="fill:#117574;" d="M309.81,192.95c0.07,0.06,0.13,0.13,0.2,0.19c0,0,0,0,0,0
		C309.94,193.08,309.87,193.01,309.81,192.95L309.81,192.95z"/>
	<path style="fill:#434451;" d="M119.59,94.23c-0.08,0.04-0.16,0.08-0.25,0.12C119.39,94.25,119.46,94.2,119.59,94.23z"/>
	<path style="fill:#117574;" d="M309.81,192.95c-0.03-0.03-0.05-0.05-0.08-0.08c0.02,0.01,0.04,0.01,0.05,0.02
		C309.79,192.9,309.8,192.93,309.81,192.95C309.81,192.95,309.81,192.95,309.81,192.95z"/>
	<path style="fill:#E5F3EC;" d="M200.23,128.39c-8.06-0.04-15.34-1.45-22.3-4.38c-4.03-1.7-7.61-4.11-10.89-7.01
		c-4.17-3.67-7.35-8.04-9.72-13.02c-1.65-3.48-2.72-7.14-3.21-10.96c-0.24-1.87-0.44-3.74-0.36-5.62c0.18-4.43,1.03-8.71,2.84-12.79
		c1.06-2.38,2.34-4.61,4.22-6.44c1.79-1.73,3.89-2.92,6.44-3.02c2.94-0.11,5.1,1.43,6.84,3.61c2.04,2.56,3.38,5.56,4.98,8.39
		c2.51,4.44,5.52,8.44,9.91,11.21c2.52,1.59,5.36,2.37,8.21,3.07c3.71,0.91,7.48,1.46,11.26,1.97c5.38,0.73,10.8,1.14,16.15,2.11
		c2.51,0.45,4.96,1.09,7.28,2.24c4.12,2.03,5.81,6.33,5.13,10.57c-0.81,4.98-3.57,8.64-7.63,11.43c-5.58,3.84-11.8,6.11-18.4,7.47
		C207.27,128,203.51,128.35,200.23,128.39z M198.39,125.88c5.7,0,10.05-0.5,14.32-1.56c6.17-1.53,12.03-3.8,17.05-7.8
		c3.39-2.7,5.15-6.32,5.07-10.7c-0.06-2.91-1.31-5.08-4.18-6.13c-0.93-0.34-1.86-0.69-2.82-0.93c-5.61-1.4-11.37-1.77-17.08-2.48
		c-5.24-0.65-10.47-1.33-15.58-2.71c-2.4-0.65-4.86-1.24-6.99-2.58c-2.92-1.84-5.4-4.2-7.56-6.89c-2.53-3.14-4.3-6.73-6.14-10.27
		c-0.81-1.56-1.67-3.1-2.83-4.44c-2.07-2.39-4.42-2.79-7.15-1.17c-1.65,0.98-3.01,2.29-3.98,3.95c-3.92,6.75-5.15,14.03-3.79,21.66
		c2.2,12.34,9.16,21.32,20.21,27.01C184.02,124.48,191.75,125.79,198.39,125.88z"/>
	<path style="fill:#182028;" d="M250.25,81.34c-0.01,1.33-0.22,2.62-0.81,3.82c-0.81,1.64-2.84,1.77-3.87,0.24
		c-0.77-1.16-1.1-2.51-1.5-3.82c-0.6-1.99-1.15-3.99-2.1-5.85c-1.75-3.42-3.68-4.45-7.51-4.14c-3.01,0.24-5.91,1.08-8.88,1.53
		c-0.83,0.13-1.66,0.19-2.49,0.1c-1.45-0.15-2.13-1.43-1.48-2.73c0.64-1.27,1.63-2.23,2.85-2.91c5.02-2.8,10.33-3.57,15.92-2.11
		c2.35,0.61,4.03,2.18,5.44,4.04C248.47,73,250.04,76.92,250.25,81.34z"/>
	<path style="fill:#182028;" d="M199.49,55.19c0,2.32-0.27,3.91-0.99,5.41c-0.45,0.94-1.23,1.41-2.2,1.44
		c-0.97,0.03-1.32-0.8-1.61-1.55c-0.74-1.88-0.98-3.9-1.52-5.84c-0.27-0.99-0.56-1.97-0.98-2.9c-1.36-3.04-3.01-3.88-6.28-3.25
		c-2.24,0.43-4.37,1.22-6.51,1.94c-1.15,0.39-2.3,0.78-3.51,0.95c-0.72,0.1-1.46,0.15-1.91-0.54c-0.43-0.68-0.3-1.4,0.06-2.1
		c0.46-0.9,1.03-1.71,1.8-2.35c4.32-3.62,9.26-5.32,14.92-4.72c1.84,0.19,3.32,1.1,4.5,2.5C198.07,47.56,199.31,51.51,199.49,55.19z
		"/>
	<path style="fill:#726F6F;" d="M273.09,127.5c0.07-4.44,0.99-8.74,2.23-12.98c1.28-4.37,2.94-8.59,4.86-12.71
		c1.61-3.44,3.8-6.53,6.21-9.44c3.12-3.77,6.64-7.11,10.96-9.51c3.48-1.93,7.16-3.16,11.15-3.55c4.49-0.44,8.77,0.28,12.94,1.93
		c3.55,1.4,5.47,4.24,6.78,7.55c2.93,7.39,2.5,14.73-0.49,22.02c-3.34,8.15-8.16,15.27-14.63,21.25
		c-5.46,5.05-11.61,9.01-18.71,11.4c-2.16,0.73-4.38,1.17-6.63,1.42c-3.43,0.39-6.26-0.93-8.79-3.07c-3.5-2.97-5.27-6.82-5.71-11.35
		C273.16,129.47,273.11,128.49,273.09,127.5z M283.41,141.7c0.06,0.07,0.12,0.14,0.2,0.03c0.01-0.01-0.07-0.07-0.11-0.11
		c-0.46-0.87-0.95-1.73-1.19-2.71c-0.84-3.44-0.22-6.76,0.91-9.98c3.21-9.12,8.54-16.8,16.05-22.89c5.35-4.33,11.29-7.52,18.26-8.31
		c2.82-0.32,5.56-0.06,8,1.62c0.79,0.54,1.37,1.29,2.08,2.06c0.31-4.58-0.27-8.87-2.23-12.91c-1.16-2.37-2.79-4.19-5.39-5.16
		c-6.72-2.51-13.32-2.27-19.73,0.84c-8.16,3.95-13.7,10.61-17.68,18.48c-3.53,6.97-6.09,14.36-6.88,22.24
		c-0.33,3.34-0.2,6.66,1.07,9.82C278.07,137.89,280.27,140.26,283.41,141.7z M319.29,99.53c-1-0.04-1.98,0.14-2.94,0.31
		c-3.49,0.62-6.74,1.9-9.82,3.64c-5.75,3.23-10.51,7.56-14.4,12.84c-2.8,3.79-5.17,7.85-6.74,12.32c-1.03,2.93-1.8,5.9-1.34,9.07
		c0.39,2.66,2.25,4.4,4.49,4.11c3.96-0.52,7.73-1.7,11.29-3.47c8.1-4.03,14.51-10.01,19.65-17.39c2.88-4.13,5.1-8.62,6.81-13.36
		c1.07-2.96,0.09-5.71-2.73-7.14C322.21,99.77,320.76,99.62,319.29,99.53z"/>
	<path style="fill:#117574;" d="M140.1,252.99c-0.61,0.15-0.69-0.28-0.82-0.7c-1.19-3.72-2.12-7.5-3.02-11.3
		c-2.46-10.36-4.59-20.79-6.65-31.23c-0.1-0.5,0.03-0.84,0.3-1.23c7.78-11.04,15.55-22.08,23.32-33.12c0.25-0.35,0.53-0.6,0.96-0.72
		c8.71-2.42,17.42-4.86,26.29-6.66c0.81-0.17,1.29-0.07,1.73,0.77c5,9.54,9.47,19.34,14.02,29.1c0.63,1.36,0.64,2.45,0.09,3.85
		c-5.4,13.63-10.72,27.3-16.04,40.96c-0.24,0.61-0.57,0.87-1.2,1.04c-11.24,3-22.5,5.92-33.89,8.28
		C143.5,252.39,141.8,252.68,140.1,252.99z M142.64,224.83c0.2-0.04,0.6-0.15,1.01-0.18c4.62-0.38,9.25-0.75,13.88-1.12
		c7.18-0.57,14.36-1.13,21.54-1.7c1.82-0.15,2.4-1.13,1.65-2.78c-4.85-10.82-9.7-21.63-14.55-32.44c-0.21-0.47-0.45-0.92-0.87-1.25
		c-0.93-0.75-1.74-0.61-2.35,0.41c-7.34,12.41-14.68,24.83-22.01,37.24c-0.5,0.85-0.4,1.19,0.48,1.61
		C141.73,224.77,142.06,224.88,142.64,224.83z"/>
	<path style="fill:#434451;" d="M198.39,125.88c-6.64-0.09-14.37-1.39-21.45-5.04c-11.04-5.69-18.01-14.66-20.21-27.01
		c-1.36-7.63-0.13-14.91,3.79-21.66c0.97-1.66,2.33-2.97,3.98-3.95c2.73-1.62,5.08-1.22,7.15,1.17c1.16,1.34,2.02,2.88,2.83,4.44
		c1.84,3.55,3.62,7.13,6.14,10.27c2.16,2.69,4.64,5.05,7.56,6.89c2.12,1.34,4.58,1.93,6.99,2.58c5.11,1.38,10.34,2.06,15.58,2.71
		c5.71,0.71,11.47,1.08,17.08,2.48c0.96,0.24,1.89,0.59,2.82,0.93c2.87,1.05,4.12,3.23,4.18,6.13c0.08,4.38-1.68,8-5.07,10.7
		c-5.02,4-10.88,6.27-17.05,7.8C208.44,125.37,204.09,125.87,198.39,125.88z M158.13,82.94c-0.36,0.42-0.13,0.92-0.2,1.38
		c-0.49,3.32-0.4,6.65,0.3,9.91c2.93,13.52,11.04,22.54,23.98,27.26c5.52,2.01,11.26,2.88,17.1,2.98c2.58,0.04,5.18-0.14,7.74-0.53
		c3-0.46,5.98-0.99,8.85-2.03c0.68-0.22,1.35-0.44,2.03-0.66c3.54-1.25,6.88-2.9,9.96-5.07c3.15-2.21,5.05-5.17,5.49-9.04
		c0.37-3.29-0.64-5.1-3.68-6.32c-0.53-0.21-1.09-0.38-1.64-0.53c-5.6-1.51-11.37-1.83-17.09-2.53c-2.16-0.26-4.34-0.41-6.49-0.78
		c-3.36-0.58-6.72-1.15-10.01-2.07c-2.37-0.66-4.75-1.36-6.85-2.62c-3.26-1.96-5.97-4.6-8.33-7.59c-2.5-3.16-4.28-6.75-6.11-10.3
		c-0.65-1.25-1.31-2.5-2.2-3.59c-0.78-0.96-1.55-1.97-2.96-2.1c-1.69-0.16-2.97,0.66-4.12,1.7c-3.19,2.89-4.44,6.78-5.4,10.79
		C158.28,81.77,158.19,82.35,158.13,82.94z"/>
	<path style="fill:#D4D3D4;" d="M283.41,141.7c-3.15-1.44-5.35-3.81-6.63-6.99c-1.27-3.16-1.41-6.48-1.07-9.82
		c0.79-7.87,3.35-15.27,6.88-22.24c3.98-7.87,9.52-14.53,17.68-18.48c6.42-3.1,13.01-3.35,19.73-0.84c2.6,0.97,4.23,2.79,5.39,5.16
		c1.97,4.04,2.54,8.33,2.23,12.91c-0.71-0.77-1.3-1.52-2.08-2.06c-2.44-1.67-5.18-1.94-8-1.62c-6.98,0.79-12.92,3.98-18.26,8.31
		c-7.51,6.09-12.84,13.78-16.05,22.89c-1.13,3.22-1.75,6.55-0.91,9.98c0.24,0.98,0.73,1.83,1.19,2.71
		C283.47,141.64,283.44,141.67,283.41,141.7z"/>
	<path style="fill:#8A8895;" d="M319.29,99.53c1.47,0.09,2.91,0.23,4.26,0.92c2.82,1.43,3.8,4.18,2.73,7.14
		c-1.72,4.74-3.93,9.23-6.81,13.36c-5.14,7.38-11.55,13.36-19.65,17.39c-3.56,1.77-7.33,2.95-11.29,3.47
		c-2.25,0.29-4.1-1.45-4.49-4.11c-0.46-3.17,0.31-6.14,1.34-9.07c1.57-4.47,3.94-8.52,6.74-12.32c3.9-5.28,8.66-9.61,14.4-12.84
		c3.09-1.73,6.33-3.02,9.82-3.64C317.32,99.67,318.3,99.49,319.29,99.53z M292.49,136.66c3.51-0.19,6.89-1.33,10.13-2.89
		c6.07-2.92,11.33-6.9,15.49-12.25c2.71-3.49,4.88-7.24,5.67-11.67c0.43-2.41-0.58-4.23-2.86-5.05c-2.25-0.8-4.49-0.51-6.69,0.05
		c-6.47,1.64-11.89,5.22-16.84,9.54c-2.8,2.45-5.21,5.27-7.03,8.55c-1.63,2.94-2.74,6.05-2.65,9.47c0.06,2.42,1.12,3.72,3.42,4.16
		C291.53,136.66,291.96,136.63,292.49,136.66z"/>
	<path style="fill:#D4D3D4;" d="M283.5,141.61c0.04,0.04,0.12,0.11,0.11,0.11c-0.08,0.11-0.14,0.04-0.2-0.03
		C283.44,141.67,283.47,141.64,283.5,141.61z"/>
	<path style="fill:#FFFFFF;" d="M142.64,224.83c-0.58,0.05-0.91-0.06-1.23-0.22c-0.88-0.42-0.98-0.76-0.48-1.61
		c7.34-12.41,14.68-24.83,22.01-37.24c0.6-1.02,1.42-1.16,2.35-0.41c0.41,0.33,0.66,0.78,0.87,1.25
		c4.85,10.81,9.71,21.63,14.55,32.44c0.74,1.66,0.16,2.64-1.65,2.78c-7.18,0.58-14.36,1.13-21.54,1.7
		c-4.63,0.37-9.25,0.74-13.88,1.12C143.24,224.68,142.84,224.79,142.64,224.83z"/>
	<path style="fill:#726F6F;" d="M292.49,136.66c-0.54-0.03-0.96,0-1.36-0.08c-2.3-0.44-3.36-1.74-3.42-4.16
		c-0.08-3.43,1.03-6.53,2.65-9.47c1.82-3.28,4.22-6.1,7.03-8.55c4.95-4.33,10.37-7.9,16.84-9.54c2.2-0.56,4.44-0.86,6.69-0.05
		c2.29,0.82,3.29,2.63,2.86,5.05c-0.79,4.44-2.96,8.18-5.67,11.67c-4.16,5.35-9.42,9.33-15.49,12.25
		C299.38,135.33,296.01,136.47,292.49,136.66z M289.1,131.48c-0.07,0.36,0.05,1.06,0.17,1.75c0.2,1.17,0.89,1.76,2.07,1.9
		c1.39,0.16,2.76,0.02,4.09-0.34c10.12-2.75,18.08-8.49,23.77-17.31c1.57-2.43,2.78-5.03,3.14-7.96c0.27-2.19-0.45-3.21-3.03-3.63
		c-1.83-0.3-3.65-0.02-5.39,0.53c-8.14,2.57-14.81,7.29-20.1,13.95C291.32,123.52,289.57,127.05,289.1,131.48z"/>
	<path style="fill:#6DCCDC;" d="M289.1,131.48c0.47-4.43,2.21-7.96,4.71-11.11c5.29-6.66,11.96-11.38,20.1-13.95
		c1.75-0.55,3.56-0.83,5.39-0.53c2.58,0.43,3.29,1.44,3.03,3.63c-0.35,2.93-1.57,5.53-3.14,7.96c-5.69,8.82-13.66,14.56-23.77,17.31
		c-1.33,0.36-2.7,0.51-4.09,0.34c-1.18-0.14-1.87-0.73-2.07-1.9C289.16,132.54,289.03,131.84,289.1,131.48z"/>
</g>
<path style="fill:#139C6D;" d="M186.6,91.48c0,0-6.42-4.31-10.9-12.29s-5.63-12.47-10.55-9.72c-4.92,2.74-16.08,25.14,3.5,43.94
	c17.58,17.8,53.36,11.26,62.58-0.2c0,0,7-10-3-13S198.97,98.75,186.6,91.48z"/>
</svg>
