<?xml version="1.0" encoding="utf-8"?>
<!-- Generator: Adobe Illustrator 22.0.1, SVG Export Plug-In . SVG Version: 6.00 Build 0)  -->
<svg version="1.1" id="Layer_1" xmlns="http://www.w3.org/2000/svg" xmlns:xlink="http://www.w3.org/1999/xlink" x="0px" y="0px"
	 viewBox="0 0 359 74" style="enable-background:new 0 0 359 74;" xml:space="preserve">
<style type="text/css">
	.st0{fill:#FFFFFF;}
</style>
<g>
	<path class="st0" d="M108.7,15.1H84.1v-3.9h54v3.9h-24.7v48.1h-4.6V15.1H108.7z"/>
	<path class="st0" d="M211.1,63.2v-52h34.5c8.1,0,12.3,3.3,12.3,12.5c0,6.3-1,10.6-7.6,12.4v0.1c6.8,1.4,8.6,6,8.6,12.5
		c0,9.4-4.5,14.5-13.2,14.5C245.7,63.2,211.1,63.2,211.1,63.2z M244.6,34.3c6.6,0,8.7-4.5,8.7-10.4c0-8.6-4.8-8.8-8.4-8.8h-29.1
		v19.2H244.6z M215.7,59.3H243c7.6,0,11.3-2.6,11.3-10.2c0-4.6-1.4-10.9-9.3-10.9h-29.4L215.7,59.3L215.7,59.3z"/>
	<path class="st0" d="M281,11.2v52h-4.6v-52C276.4,11.2,281,11.2,281,11.2z"/>
	<path class="st0" d="M345.6,63.1h5.8l-25.8-50.7H320l-25.8,50.7h5.4l6.9-13.5h32.4L345.6,63.1z M308.5,45.5l14.2-27.8h0.1
		l13.9,27.8H308.5z"/>
	<path class="st0" d="M191.2,11.2v32.3c0,6.8,0,16.4-10.6,16.4h-17.1c-10.6,0-10.6-9.6-10.6-16.4V11.2h-4.6v35.6
		c0,13.4,7.1,16.9,15.2,16.9h17.1c8.1,0,15.2-3.5,15.2-16.9V11.2H191.2z"/>
</g>
<g>
	<path class="st0" d="M41.3,37.1l-11.4-7.8c-0.2-0.1-0.3-0.1-0.5,0s-0.2,0.2-0.2,0.4v15.6c0,0.2,0.1,0.3,0.2,0.4
		c0.1,0,0.2,0.1,0.2,0.1c0.1,0,0.2,0,0.2-0.1l11.4-7.8c0.2-0.1,0.2-0.2,0.2-0.4S41.4,37.2,41.3,37.1z"/>
	<path class="st0" d="M33.8,63.8L11,50.7V24.4l22.7-13.2l22.8,13.1v26.3L33.8,63.8z M14.3,48.8L33.8,60l19.4-11.3V26.2L33.7,15.1
		L14.3,26.3V48.8z"/>
</g>
</svg>
