<?xml version="1.0" encoding="utf-8"?>
<!-- Generator: Adobe Illustrator 24.0.0, SVG Export Plug-In . SVG Version: 6.00 Build 0)  -->
<svg version="1.1" id="Layer_1" xmlns="http://www.w3.org/2000/svg" xmlns:xlink="http://www.w3.org/1999/xlink" x="0px" y="0px"
	 viewBox="0 0 18 18" style="enable-background:new 0 0 18 18;" xml:space="preserve">
<g>
	<polygon points="12.4,12.5 14.5,10.4 16.6,12.5 18,11.1 15.9,9 18,6.9 16.6,5.5 14.5,7.6 12.4,5.5 11,6.9 13.1,9 11,11.1 	"/>
	<path id="Path_1907" d="M8.3,2C8.1,2,7.9,2.1,7.7,2.2L3.9,6H1C0.6,6,0.2,6.3,0.2,6.7v4.4c0,0.4,0.3,0.7,0.7,0.7h3l3.8,3.8
		c0.3,0.3,0.7,0.3,1,0C8.9,15.5,9,15.3,9,15.1V2.7c0-0.2-0.1-0.4-0.2-0.5C8.6,2.1,8.4,2,8.3,2z"/>
</g>
</svg>
