<?xml version="1.0" encoding="utf-8"?>
<!-- Generator: Adobe Illustrator 23.1.1, SVG Export Plug-In . SVG Version: 6.00 Build 0)  -->
<svg version="1.1" id="Layer_1" xmlns="http://www.w3.org/2000/svg" xmlns:xlink="http://www.w3.org/1999/xlink" x="0px" y="0px"
	 viewBox="0 0 1792 1792" style="enable-background:new 0 0 1792 1792;" xml:space="preserve">
<style type="text/css">
	.st0{fill:none;}
	.st1{fill:#FFFFFF;}
</style>
<path id="Path_1888" class="st0" d="M61.5,109.4h1669v1669H61.5V109.4z"/>
<path class="st1" d="M1234.9,1380.9L460.6,606.6c-27.5-27.5-27.5-72.1,0-99.6l0,0c27.5-27.5,72.1-27.5,99.6,0l774.3,774.3
	c27.5,27.5,27.5,72.1,0,99.6l0,0C1307,1408.4,1262.4,1408.4,1234.9,1380.9z"/>
<path class="st1" d="M1334.5,606.6l-774.3,774.3c-27.5,27.5-72.1,27.5-99.6,0l0,0c-27.5-27.5-27.5-72.1,0-99.6l774.3-774.3
	c27.5-27.5,72.1-27.5,99.6,0l0,0C1362,534.5,1362,579.1,1334.5,606.6z"/>
</svg>
