<?xml version="1.0" encoding="utf-8"?>
<!-- Generator: Adobe Illustrator 24.0.0, SVG Export Plug-In . SVG Version: 6.00 Build 0)  -->
<svg version="1.1" id="Layer_1" xmlns="http://www.w3.org/2000/svg" xmlns:xlink="http://www.w3.org/1999/xlink" x="0px" y="0px"
	 viewBox="0 0 18 18" style="enable-background:new 0 0 18 18;" xml:space="preserve">
<g>
	<path d="M15.6,3.3c-0.4-0.4-1-0.4-1.4,0c-0.4,0.4-0.4,1,0,1.4C15.4,5.9,16,7.4,16,9s-0.6,3.1-1.8,4.3c-0.4,0.4-0.4,1,0,1.4
		c0.2,0.2,0.5,0.3,0.7,0.3c0.3,0,0.5-0.1,0.7-0.3C17.1,13.2,18,11.2,18,9S17.1,4.8,15.6,3.3L15.6,3.3z"/>
	<path d="M11.3,5.3c-0.4,0.4-0.4,0.9,0,1.3c0.7,0.7,1,1.5,1,2.4c0,0.9-0.4,1.9-1,2.5c-0.4,0.4-0.4,0.9,0,1.3c0.1,0.1,0.6,0.3,1,0.2
		c0.1,0,0.2-0.1,0.3-0.2c1.2-1.1,1.5-2.6,1.5-3.8c0-0.2,0-0.3,0-0.5c-0.1-1-0.3-2-1.5-3.2C12.2,4.9,11.7,4.9,11.3,5.3z"/>
</g>
<g>
	<path id="Path_1907" d="M8.3,2C8.1,2,7.9,2.1,7.7,2.2L3.9,6H1C0.6,6,0.2,6.3,0.2,6.7v4.4c0,0.4,0.3,0.7,0.7,0.7h3l3.8,3.8
		c0.3,0.3,0.7,0.3,1,0C8.9,15.5,9,15.3,9,15.1V2.7c0-0.2-0.1-0.4-0.2-0.5C8.6,2.1,8.4,2,8.3,2z"/>
</g>
</svg>
